<?xml version="1.0" encoding="UTF-8"?>
<!DOCTYPE svg PUBLIC "-//W3C//DTD SVG 1.1//EN" "http://www.w3.org/Graphics/SVG/1.1/DTD/svg11.dtd">
<!-- Creator: CorelDRAW X6 -->
<svg xmlns="http://www.w3.org/2000/svg" xml:space="preserve" width="19px" height="18px" version="1.1" style="shape-rendering:geometricPrecision; text-rendering:geometricPrecision; image-rendering:optimizeQuality; fill-rule:evenodd; clip-rule:evenodd"
viewBox="0 0 190 176"
 xmlns:xlink="http://www.w3.org/1999/xlink">
 <defs>
  <style type="text/css">
   <![CDATA[
    .fil0 {fill:white}
   ]]>
  </style>
 </defs>
 <g id="Ebene_x0020_1">
  <metadata id="CorelCorpID_0Corel-Layer"/>
  <path class="fil0" d="M189 98c-10,-31 -20,-62 -30,-93 -2,-7 -13,-7 -15,0l-19 59 -60 0 -19 -59c-2,-7 -13,-7 -15,0 -10,31 -20,62 -30,93 -2,5 0,10 4,13l88 64 0 0c2,1 4,1 5,0l88 -64c4,-3 6,-8 4,-13zm-38 -87l17 53 -34 0 17 -53zm14 62l-59 75 24 -75 34 0zm-83 75l-59 -75 34 0 24 75zm-45 -137l17 53 -34 0 17 -53zm-28 93c-1,-1 -1,-2 -1,-3l8 -23 55 71 -62 -45zm82 71c0,0 0,0 0,0zm3 -18l-27 -84 54 0 -27 84zm85 -53l-62 45 55 -71 8 23c0,1 0,2 -1,3z"/>
 </g>
</svg>
